<svg xmlns="http://www.w3.org/2000/svg" xmlns:xlink="http://www.w3.org/1999/xlink" width="1920" zoomAndPan="magnify" viewBox="0 0 1440 809.999993" height="1080" preserveAspectRatio="xMidYMid meet" version="1.0"><defs><g/><clipPath id="f8f2b7deef"><path d="M 0.71875 0.71875 L 1145 0.71875 L 1145 354.238281 L 0.71875 354.238281 Z M 0.71875 0.71875 " clip-rule="nonzero"/></clipPath><clipPath id="290b24a9f4"><rect x="0" width="1145" y="0" height="355"/></clipPath><clipPath id="bea9935fa5"><path d="M 1161.890625 177.761719 L 1260.148438 177.761719 L 1260.148438 276.019531 L 1161.890625 276.019531 Z M 1161.890625 177.761719 " clip-rule="nonzero"/></clipPath><clipPath id="367a1f59aa"><path d="M 1211.019531 177.761719 L 1226.652344 211.257812 L 1260.148438 226.890625 L 1226.652344 242.523438 L 1211.019531 276.019531 L 1195.386719 242.523438 L 1161.890625 226.890625 L 1195.386719 211.257812 Z M 1211.019531 177.761719 " clip-rule="nonzero"/></clipPath><clipPath id="178a996f58"><path d="M 0.890625 0.761719 L 99.148438 0.761719 L 99.148438 99.019531 L 0.890625 99.019531 Z M 0.890625 0.761719 " clip-rule="nonzero"/></clipPath><clipPath id="d373684251"><path d="M 50.019531 0.761719 L 65.652344 34.257812 L 99.148438 49.890625 L 65.652344 65.523438 L 50.019531 99.019531 L 34.386719 65.523438 L 0.890625 49.890625 L 34.386719 34.257812 Z M 50.019531 0.761719 " clip-rule="nonzero"/></clipPath><clipPath id="aa8309607c"><rect x="0" width="100" y="0" height="100"/></clipPath><clipPath id="b212b039db"><path d="M 1199.570312 56.605469 L 1320.726562 56.605469 L 1320.726562 177.761719 L 1199.570312 177.761719 Z M 1199.570312 56.605469 " clip-rule="nonzero"/></clipPath><clipPath id="8e67a0d7c3"><path d="M 1260.148438 56.605469 L 1279.421875 97.910156 L 1320.726562 117.183594 L 1279.421875 136.460938 L 1260.148438 177.761719 L 1240.871094 136.460938 L 1199.570312 117.183594 L 1240.871094 97.910156 Z M 1260.148438 56.605469 " clip-rule="nonzero"/></clipPath><clipPath id="47d07e22a7"><path d="M 0.570312 0.605469 L 121.726562 0.605469 L 121.726562 121.761719 L 0.570312 121.761719 Z M 0.570312 0.605469 " clip-rule="nonzero"/></clipPath><clipPath id="9655187b30"><path d="M 61.148438 0.605469 L 80.421875 41.910156 L 121.726562 61.183594 L 80.421875 80.460938 L 61.148438 121.761719 L 41.871094 80.460938 L 0.570312 61.183594 L 41.871094 41.910156 Z M 61.148438 0.605469 " clip-rule="nonzero"/></clipPath><clipPath id="6d372da4b6"><rect x="0" width="122" y="0" height="122"/></clipPath><clipPath id="7224318f11"><rect x="0" width="1321" y="0" height="355"/></clipPath></defs><g transform="matrix(1, 0, 0, 1, 66, 264)"><g clip-path="url(#7224318f11)"><g clip-path="url(#f8f2b7deef)"><g transform="matrix(1, 0, 0, 1, 0, 0.000000000000056843)"><g clip-path="url(#290b24a9f4)"><g fill="#004aad" fill-opacity="1"><g transform="translate(0.876009, 265.555717)"><g><path d="M 105.5 5.296875 L 2.109375 -252.296875 L 58.921875 -252.296875 L 109.734375 -123.5 L 159.140625 -249.828125 L 161.609375 -249.828125 L 211.015625 -123.5 L 261.828125 -252.296875 L 318.625 -252.296875 L 215.59375 4.234375 L 206.421875 4.234375 L 160.203125 -107.625 L 114.328125 5.296875 Z M 105.5 5.296875 "/></g></g></g><g fill="#004aad" fill-opacity="1"><g transform="translate(321.971205, 265.555717)"><g><path d="M 105.5 5.296875 L 2.109375 -252.296875 L 58.921875 -252.296875 L 109.734375 -123.5 L 159.140625 -249.828125 L 161.609375 -249.828125 L 211.015625 -123.5 L 261.828125 -252.296875 L 318.625 -252.296875 L 215.59375 4.234375 L 206.421875 4.234375 L 160.203125 -107.625 L 114.328125 5.296875 Z M 105.5 5.296875 "/></g></g></g><g fill="#004aad" fill-opacity="1"><g transform="translate(643.066401, 265.555717)"><g><path d="M 188.78125 -193.71875 C 184.070312 -196.300781 178.363281 -198.769531 171.65625 -201.125 C 164.957031 -203.476562 156.082031 -204.65625 145.03125 -204.65625 C 130.675781 -204.65625 118.441406 -201.890625 108.328125 -196.359375 C 98.210938 -190.835938 90.097656 -183.488281 83.984375 -174.3125 C 77.867188 -165.132812 73.75 -155.078125 71.625 -144.140625 C 69.507812 -133.203125 69.507812 -122.265625 71.625 -111.328125 C 73.75 -100.390625 77.867188 -90.332031 83.984375 -81.15625 C 90.097656 -71.976562 98.210938 -64.625 108.328125 -59.09375 C 118.441406 -53.570312 130.675781 -50.8125 145.03125 -50.8125 C 156.082031 -50.8125 165.78125 -52.101562 174.125 -54.6875 C 182.476562 -57.28125 189.007812 -59.753906 193.71875 -62.109375 L 200.421875 -9.875 C 192.660156 -6.820312 183.722656 -4.296875 173.609375 -2.296875 C 163.492188 -0.296875 153.96875 0.703125 145.03125 0.703125 C 123.625 0.703125 104.921875 -2.878906 88.921875 -10.046875 C 72.921875 -17.222656 59.566406 -26.925781 48.859375 -39.15625 C 38.160156 -51.394531 30.164062 -65.097656 24.875 -80.265625 C 19.582031 -95.441406 16.9375 -111.144531 16.9375 -127.375 C 16.9375 -143.613281 19.582031 -159.316406 24.875 -174.484375 C 30.164062 -189.660156 38.160156 -203.363281 48.859375 -215.59375 C 59.566406 -227.832031 72.921875 -237.535156 88.921875 -244.703125 C 104.921875 -251.878906 123.625 -255.46875 145.03125 -255.46875 C 163.375 -255.46875 179.957031 -252.175781 194.78125 -245.59375 Z M 188.78125 -193.71875 "/></g></g></g><g fill="#004aad" fill-opacity="1"><g transform="translate(855.483288, 265.555717)"><g><path d="M 143.96875 -145.375 L 243.46875 -256.171875 L 259.34375 -256.171875 L 259.34375 0 L 208.1875 0 L 208.546875 -140.796875 L 143.96875 -73.046875 L 79.390625 -140.796875 L 79.390625 0 L 28.234375 0 L 28.234375 -256.171875 L 44.453125 -256.171875 Z M 143.96875 -145.375 "/></g></g></g></g></g></g><g clip-path="url(#bea9935fa5)"><g clip-path="url(#367a1f59aa)"><g transform="matrix(1, 0, 0, 1, 1161, 177)"><g clip-path="url(#aa8309607c)"><g clip-path="url(#178a996f58)"><g clip-path="url(#d373684251)"><path fill="#0cc0df" d="M 0.890625 0.761719 L 99.148438 0.761719 L 99.148438 99.019531 L 0.890625 99.019531 Z M 0.890625 0.761719 " fill-opacity="1" fill-rule="nonzero"/></g></g></g></g></g></g><g clip-path="url(#b212b039db)"><g clip-path="url(#8e67a0d7c3)"><g transform="matrix(1, 0, 0, 1, 1199, 56)"><g clip-path="url(#6d372da4b6)"><g clip-path="url(#47d07e22a7)"><g clip-path="url(#9655187b30)"><path fill="#0cc0df" d="M 0.570312 0.605469 L 121.726562 0.605469 L 121.726562 121.761719 L 0.570312 121.761719 Z M 0.570312 0.605469 " fill-opacity="1" fill-rule="nonzero"/></g></g></g></g></g></g></g></g></svg>