<svg xmlns="http://www.w3.org/2000/svg" xmlns:xlink="http://www.w3.org/1999/xlink" width="1900" zoomAndPan="magnify" viewBox="0 0 1425 412.499988" height="550" preserveAspectRatio="xMidYMid meet" version="1.0"><defs><g/><clipPath id="7b258639bb"><path d="M 0.574219 56 L 43 56 L 43 190 L 0.574219 190 Z M 0.574219 56 " clip-rule="nonzero"/></clipPath><clipPath id="cfa6f8c86c"><rect x="0" width="55" y="0" height="239"/></clipPath><clipPath id="aebc3bef40"><rect x="0" width="123" y="0" height="270"/></clipPath><clipPath id="a24ec7239f"><path d="M 1289 0.402344 L 1401.464844 0.402344 L 1401.464844 381 L 1289 381 Z M 1289 0.402344 " clip-rule="nonzero"/></clipPath><clipPath id="ced26d78a4"><rect x="0" width="113" y="0" height="381"/></clipPath><clipPath id="8a304720e7"><rect x="0" width="99" y="0" height="239"/></clipPath><clipPath id="f93b42eb5f"><rect x="0" width="111" y="0" height="271"/></clipPath><clipPath id="b16e7b66ab"><rect x="0" width="279" y="0" height="319"/></clipPath><clipPath id="9986765c70"><path d="M 5.199219 101.289062 L 54.238281 101.289062 L 54.238281 150.328125 L 5.199219 150.328125 Z M 5.199219 101.289062 " clip-rule="nonzero"/></clipPath><clipPath id="0680cf7b75"><path d="M 29.71875 101.289062 L 37.523438 118.007812 L 54.238281 125.808594 L 37.523438 133.609375 L 29.71875 150.328125 L 21.917969 133.609375 L 5.199219 125.808594 L 21.917969 118.007812 Z M 29.71875 101.289062 " clip-rule="nonzero"/></clipPath><clipPath id="ba1897f292"><path d="M 0.199219 0.289062 L 49.238281 0.289062 L 49.238281 49.328125 L 0.199219 49.328125 Z M 0.199219 0.289062 " clip-rule="nonzero"/></clipPath><clipPath id="8fea3ff122"><path d="M 24.71875 0.289062 L 32.523438 17.007812 L 49.238281 24.808594 L 32.523438 32.609375 L 24.71875 49.328125 L 16.917969 32.609375 L 0.199219 24.808594 L 16.917969 17.007812 Z M 24.71875 0.289062 " clip-rule="nonzero"/></clipPath><clipPath id="ebd0ef351d"><rect x="0" width="50" y="0" height="50"/></clipPath><clipPath id="6649d0babe"><path d="M 24.003906 40.820312 L 84.472656 40.820312 L 84.472656 101.289062 L 24.003906 101.289062 Z M 24.003906 40.820312 " clip-rule="nonzero"/></clipPath><clipPath id="0c4ca43a71"><path d="M 54.238281 40.820312 L 63.859375 61.433594 L 84.472656 71.054688 L 63.859375 80.675781 L 54.238281 101.289062 L 44.621094 80.675781 L 24.003906 71.054688 L 44.621094 61.433594 Z M 54.238281 40.820312 " clip-rule="nonzero"/></clipPath><clipPath id="223d12b378"><path d="M 0.00390625 0.820312 L 60.472656 0.820312 L 60.472656 61.289062 L 0.00390625 61.289062 Z M 0.00390625 0.820312 " clip-rule="nonzero"/></clipPath><clipPath id="c6728abd9e"><path d="M 30.238281 0.820312 L 39.859375 21.433594 L 60.472656 31.054688 L 39.859375 40.675781 L 30.238281 61.289062 L 20.621094 40.675781 L 0.00390625 31.054688 L 20.621094 21.433594 Z M 30.238281 0.820312 " clip-rule="nonzero"/></clipPath><clipPath id="085b507ea5"><rect x="0" width="61" y="0" height="62"/></clipPath><clipPath id="172537abc4"><rect x="0" width="1402" y="0" height="381"/></clipPath></defs><g transform="matrix(1, 0, 0, 1, 18, 31)"><g clip-path="url(#172537abc4)"><g transform="matrix(1, 0, 0, 1, 1177, 60)"><g clip-path="url(#cfa6f8c86c)"><g clip-path="url(#7b258639bb)"><g fill="#004aad" fill-opacity="1"><g transform="translate(0.788818, 187.672245)"><g><path d="M 41.453125 -8.40625 C 41.453125 -7.59375 41.3125 -6.609375 41.03125 -5.453125 C 40.75 -4.304688 40.09375 -3.21875 39.0625 -2.1875 C 38.039062 -1.164062 36.566406 -0.296875 34.640625 0.421875 C 32.710938 1.140625 30.097656 1.5 26.796875 1.5 C 23.492188 1.5 20.910156 1.109375 19.046875 0.328125 C 17.179688 -0.453125 15.78125 -1.367188 14.84375 -2.421875 C 13.90625 -3.484375 13.328125 -4.570312 13.109375 -5.6875 C 12.898438 -6.8125 12.796875 -7.71875 12.796875 -8.40625 L 12.796875 -80.484375 C 12.796875 -82.285156 12.375 -83.851562 11.53125 -85.1875 C 10.6875 -86.53125 9.269531 -87.203125 7.28125 -87.203125 C 6.226562 -87.203125 5.328125 -87.015625 4.578125 -86.640625 C 3.828125 -86.265625 3.015625 -85.738281 2.140625 -85.0625 L 0.1875 -87.390625 C 1.613281 -88.578125 3.210938 -89.742188 4.984375 -90.890625 C 6.765625 -92.046875 8.679688 -93.054688 10.734375 -93.921875 C 12.785156 -94.796875 14.992188 -95.515625 17.359375 -96.078125 C 19.734375 -96.640625 22.226562 -96.921875 24.84375 -96.921875 C 28.882812 -96.921875 32.023438 -96.375 34.265625 -95.28125 C 36.503906 -94.195312 38.148438 -92.859375 39.203125 -91.265625 C 40.265625 -89.679688 40.90625 -87.984375 41.125 -86.171875 C 41.34375 -84.367188 41.453125 -82.785156 41.453125 -81.421875 Z M 9.890625 -118.203125 C 9.890625 -119.941406 10.28125 -121.601562 11.0625 -123.1875 C 11.84375 -124.78125 12.929688 -126.164062 14.328125 -127.34375 C 15.734375 -128.53125 17.351562 -129.46875 19.1875 -130.15625 C 21.019531 -130.84375 23.023438 -131.1875 25.203125 -131.1875 C 27.328125 -131.1875 29.304688 -130.84375 31.140625 -130.15625 C 32.972656 -129.46875 34.570312 -128.53125 35.9375 -127.34375 C 37.3125 -126.164062 38.382812 -124.78125 39.15625 -123.1875 C 39.9375 -121.601562 40.328125 -119.941406 40.328125 -118.203125 C 40.328125 -116.398438 39.9375 -114.71875 39.15625 -113.15625 C 38.382812 -111.601562 37.3125 -110.25 35.9375 -109.09375 C 34.570312 -107.945312 32.972656 -107.03125 31.140625 -106.34375 C 29.304688 -105.65625 27.328125 -105.3125 25.203125 -105.3125 C 23.023438 -105.3125 21.019531 -105.65625 19.1875 -106.34375 C 17.351562 -107.03125 15.734375 -107.945312 14.328125 -109.09375 C 12.929688 -110.25 11.84375 -111.601562 11.0625 -113.15625 C 10.28125 -114.71875 9.890625 -116.398438 9.890625 -118.203125 Z M 9.890625 -118.203125 "/></g></g></g></g></g></g><g transform="matrix(1, 0, 0, 1, 1215, 36)"><g clip-path="url(#aebc3bef40)"><g fill="#004aad" fill-opacity="1"><g transform="translate(5.318841, 205.101418)"><g><path d="M 83.84375 -63.484375 C 81.726562 -63.679688 79.988281 -64.164062 78.625 -64.9375 C 77.269531 -65.71875 76.195312 -66.691406 75.40625 -67.859375 C 74.625 -69.023438 74.085938 -70.285156 73.796875 -71.640625 C 73.515625 -73.003906 73.4375 -74.398438 73.5625 -75.828125 C 73.726562 -77.671875 74.003906 -79.425781 74.390625 -81.09375 C 74.785156 -82.769531 74.957031 -84.296875 74.90625 -85.671875 C 74.863281 -87.046875 74.4375 -88.179688 73.625 -89.078125 C 72.820312 -89.972656 71.300781 -90.523438 69.0625 -90.734375 C 66.6875 -90.941406 64.109375 -90.488281 61.328125 -89.375 C 58.554688 -88.257812 55.953125 -86.335938 53.515625 -83.609375 C 51.078125 -80.878906 48.9375 -77.285156 47.09375 -72.828125 C 45.25 -68.378906 44.035156 -62.925781 43.453125 -56.46875 C 42.804688 -49.332031 42.875 -42.765625 43.65625 -36.765625 C 44.445312 -30.773438 45.976562 -25.585938 48.25 -21.203125 C 50.53125 -16.816406 53.539062 -13.304688 57.28125 -10.671875 C 61.019531 -8.035156 65.535156 -6.476562 70.828125 -6 C 73.210938 -5.789062 75.492188 -5.859375 77.671875 -6.203125 C 79.859375 -6.546875 81.945312 -7.109375 83.9375 -7.890625 C 85.925781 -8.679688 87.84375 -9.625 89.6875 -10.71875 C 91.539062 -11.820312 93.34375 -13.007812 95.09375 -14.28125 L 97.4375 -11.609375 C 95.664062 -9.640625 93.445312 -7.507812 90.78125 -5.21875 C 88.113281 -2.925781 84.945312 -0.835938 81.28125 1.046875 C 77.613281 2.941406 73.40625 4.410156 68.65625 5.453125 C 63.90625 6.503906 58.570312 6.757812 52.65625 6.21875 C 46.75 5.6875 41.09375 4.023438 35.6875 1.234375 C 30.289062 -1.554688 25.613281 -5.316406 21.65625 -10.046875 C 17.707031 -14.785156 14.703125 -20.382812 12.640625 -26.84375 C 10.585938 -33.300781 9.925781 -40.503906 10.65625 -48.453125 C 11.207031 -54.640625 12.503906 -60.257812 14.546875 -65.3125 C 16.585938 -70.375 19.140625 -74.882812 22.203125 -78.84375 C 25.265625 -82.8125 28.722656 -86.234375 32.578125 -89.109375 C 36.441406 -91.984375 40.4375 -94.304688 44.5625 -96.078125 C 48.695312 -97.859375 52.867188 -99.109375 57.078125 -99.828125 C 61.296875 -100.546875 65.304688 -100.726562 69.109375 -100.375 C 74.128906 -99.925781 78.457031 -98.953125 82.09375 -97.453125 C 85.726562 -95.960938 88.695312 -94.148438 91 -92.015625 C 93.3125 -89.890625 94.960938 -87.53125 95.953125 -84.9375 C 96.953125 -82.34375 97.332031 -79.726562 97.09375 -77.09375 C 96.90625 -75.113281 96.476562 -73.25 95.8125 -71.5 C 95.144531 -69.75 94.257812 -68.253906 93.15625 -67.015625 C 92.050781 -65.773438 90.710938 -64.832031 89.140625 -64.1875 C 87.578125 -63.539062 85.8125 -63.304688 83.84375 -63.484375 Z M 83.84375 -63.484375 "/></g></g></g></g></g><g clip-path="url(#a24ec7239f)"><g transform="matrix(1, 0, 0, 1, 1289, 0)"><g clip-path="url(#ced26d78a4)"><g fill="#004aad" fill-opacity="1"><g transform="translate(21.15641, 257.025376)"><g><path d="M 35.015625 -182.515625 C 41.703125 -180.847656 47.691406 -178.960938 52.984375 -176.859375 C 58.285156 -174.753906 63.109375 -172.066406 67.453125 -168.796875 C 63.941406 -151.796875 60.695312 -136.222656 57.71875 -122.078125 C 54.738281 -107.929688 52.085938 -94.175781 49.765625 -80.8125 C 47.453125 -67.445312 45.316406 -53.351562 43.359375 -38.53125 L 28.46875 -40 C 29.113281 -54.945312 29.476562 -69.210938 29.5625 -82.796875 C 29.644531 -96.390625 29.335938 -110.644531 28.640625 -125.5625 C 27.953125 -140.488281 26.675781 -157.132812 24.8125 -175.5 Z M 34.625 -26.375 C 37.113281 -26.125 39.457031 -25.722656 41.65625 -25.171875 C 43.851562 -24.617188 46.160156 -23.890625 48.578125 -22.984375 C 48.828125 -20.460938 48.96875 -18.113281 49 -15.9375 C 49.039062 -13.769531 48.9375 -11.445312 48.6875 -8.96875 C 48.257812 -4.664062 47.316406 -0.171875 45.859375 4.515625 C 43.347656 4.609375 40.953125 4.789062 38.671875 5.0625 C 36.390625 5.34375 34.003906 5.359375 31.515625 5.109375 C 29.535156 4.910156 27.5 4.457031 25.40625 3.75 C 23.3125 3.050781 20.957031 2.40625 18.34375 1.8125 C 18.238281 -0.53125 18.085938 -2.835938 17.890625 -5.109375 C 17.703125 -7.390625 17.722656 -9.6875 17.953125 -12 C 18.203125 -14.476562 18.632812 -16.769531 19.25 -18.875 C 19.875 -20.976562 20.476562 -23.25 21.0625 -25.6875 C 23.769531 -26.09375 26.210938 -26.359375 28.390625 -26.484375 C 30.566406 -26.609375 32.644531 -26.570312 34.625 -26.375 Z M 34.625 -26.375 "/></g></g></g></g></g></g><g transform="matrix(1, 0, 0, 1, 1078, 52)"><g clip-path="url(#8a304720e7)"><g fill="#004aad" fill-opacity="1"><g transform="translate(0.785782, 187.867233)"><g><path d="M 7.65625 -58.734375 C 7.65625 -65.078125 8.757812 -70.628906 10.96875 -75.390625 C 13.175781 -80.148438 16.144531 -84.132812 19.875 -87.34375 C 23.613281 -90.550781 27.941406 -92.945312 32.859375 -94.53125 C 37.773438 -96.125 42.941406 -96.921875 48.359375 -96.921875 C 53.773438 -96.921875 58.910156 -96.203125 63.765625 -94.765625 C 68.617188 -93.335938 72.914062 -91.128906 76.65625 -88.140625 C 77.832031 -89.941406 78.796875 -91.835938 79.546875 -93.828125 C 80.296875 -95.828125 80.671875 -97.820312 80.671875 -99.8125 C 80.671875 -102.425781 79.96875 -104.507812 78.5625 -106.0625 C 77.164062 -107.625 75.378906 -108.40625 73.203125 -108.40625 L 73.203125 -111.109375 C 74.566406 -111.546875 75.773438 -111.9375 76.828125 -112.28125 C 77.890625 -112.625 78.859375 -112.882812 79.734375 -113.0625 C 80.609375 -113.25 81.476562 -113.390625 82.34375 -113.484375 C 83.21875 -113.578125 84.1875 -113.625 85.25 -113.625 C 88.175781 -113.625 90.414062 -112.722656 91.96875 -110.921875 C 93.519531 -109.117188 94.296875 -106.628906 94.296875 -103.453125 C 94.296875 -101.585938 93.859375 -99.734375 92.984375 -97.890625 C 92.117188 -96.054688 91.03125 -94.296875 89.71875 -92.609375 C 88.414062 -90.929688 86.96875 -89.347656 85.375 -87.859375 C 83.789062 -86.367188 82.285156 -85.0625 80.859375 -83.9375 C 83.472656 -80.945312 85.492188 -77.457031 86.921875 -73.46875 C 88.359375 -69.488281 89.078125 -64.945312 89.078125 -59.84375 C 89.078125 -53.4375 87.96875 -47.773438 85.75 -42.859375 C 83.539062 -37.941406 80.566406 -33.800781 76.828125 -30.4375 C 73.097656 -27.070312 68.773438 -24.535156 63.859375 -22.828125 C 58.941406 -21.117188 53.773438 -20.265625 48.359375 -20.265625 C 45.191406 -20.265625 42.082031 -20.539062 39.03125 -21.09375 C 35.976562 -21.65625 33.113281 -22.46875 30.4375 -23.53125 C 29.4375 -22.78125 28.578125 -21.84375 27.859375 -20.71875 C 27.148438 -19.601562 26.796875 -18.363281 26.796875 -17 C 26.796875 -14.6875 27.789062 -12.96875 29.78125 -11.84375 C 31.769531 -10.726562 34.414062 -9.921875 37.71875 -9.421875 C 41.019531 -8.929688 44.753906 -8.625 48.921875 -8.5 C 53.097656 -8.375 57.378906 -8.171875 61.765625 -7.890625 C 66.148438 -7.609375 70.425781 -7.078125 74.59375 -6.296875 C 78.769531 -5.523438 82.503906 -4.25 85.796875 -2.46875 C 89.097656 -0.695312 91.742188 1.710938 93.734375 4.765625 C 95.734375 7.816406 96.734375 11.769531 96.734375 16.625 C 96.734375 20.164062 95.984375 23.351562 94.484375 26.1875 C 92.992188 29.019531 90.988281 31.507812 88.46875 33.65625 C 85.945312 35.800781 83.019531 37.632812 79.6875 39.15625 C 76.351562 40.6875 72.832031 41.929688 69.125 42.890625 C 65.425781 43.859375 61.660156 44.5625 57.828125 45 C 54.003906 45.4375 50.351562 45.65625 46.875 45.65625 C 40.519531 45.65625 34.804688 45.328125 29.734375 44.671875 C 24.660156 44.023438 20.347656 43.015625 16.796875 41.640625 C 13.253906 40.273438 10.519531 38.5 8.59375 36.3125 C 6.664062 34.132812 5.703125 31.523438 5.703125 28.484375 C 5.703125 26.296875 6.195312 24.285156 7.1875 22.453125 C 8.1875 20.617188 9.507812 18.9375 11.15625 17.40625 C 12.800781 15.882812 14.648438 14.515625 16.703125 13.296875 C 18.765625 12.085938 20.851562 10.953125 22.96875 9.890625 C 19.851562 8.585938 17.253906 6.613281 15.171875 3.96875 C 13.085938 1.320312 12.046875 -2.175781 12.046875 -6.53125 C 12.046875 -8.832031 12.445312 -10.960938 13.25 -12.921875 C 14.0625 -14.890625 15.101562 -16.695312 16.375 -18.34375 C 17.65625 -20 19.054688 -21.492188 20.578125 -22.828125 C 22.109375 -24.171875 23.585938 -25.304688 25.015625 -26.234375 C 22.460938 -27.734375 20.113281 -29.554688 17.96875 -31.703125 C 15.820312 -33.847656 13.984375 -36.273438 12.453125 -38.984375 C 10.929688 -41.691406 9.75 -44.691406 8.90625 -47.984375 C 8.070312 -51.285156 7.65625 -54.867188 7.65625 -58.734375 Z M 60.96875 -59.46875 C 60.96875 -63.082031 60.78125 -66.597656 60.40625 -70.015625 C 60.03125 -73.441406 59.375 -76.492188 58.4375 -79.171875 C 57.507812 -81.847656 56.234375 -84.007812 54.609375 -85.65625 C 52.992188 -87.3125 50.910156 -88.140625 48.359375 -88.140625 C 45.804688 -88.140625 43.722656 -87.28125 42.109375 -85.5625 C 40.492188 -83.851562 39.21875 -81.613281 38.28125 -78.84375 C 37.34375 -76.070312 36.6875 -72.925781 36.3125 -69.40625 C 35.945312 -65.894531 35.765625 -62.335938 35.765625 -58.734375 C 35.765625 -55.054688 35.945312 -51.441406 36.3125 -47.890625 C 36.6875 -44.347656 37.34375 -41.175781 38.28125 -38.375 C 39.21875 -35.570312 40.492188 -33.3125 42.109375 -31.59375 C 43.722656 -29.882812 45.804688 -29.03125 48.359375 -29.03125 C 50.910156 -29.03125 52.992188 -29.929688 54.609375 -31.734375 C 56.234375 -33.546875 57.507812 -35.898438 58.4375 -38.796875 C 59.375 -41.691406 60.03125 -44.941406 60.40625 -48.546875 C 60.78125 -52.160156 60.96875 -55.800781 60.96875 -59.46875 Z M 75.15625 24.09375 C 75.15625 22.09375 74.378906 20.453125 72.828125 19.171875 C 71.273438 17.898438 69.238281 16.875 66.71875 16.09375 C 64.195312 15.320312 61.332031 14.734375 58.125 14.328125 C 54.914062 13.921875 51.660156 13.609375 48.359375 13.390625 C 45.066406 13.179688 41.863281 12.984375 38.75 12.796875 C 35.632812 12.609375 32.925781 12.359375 30.625 12.046875 C 29.320312 12.972656 28.0625 13.984375 26.84375 15.078125 C 25.625 16.171875 24.5625 17.320312 23.65625 18.53125 C 22.757812 19.75 22.03125 21.023438 21.46875 22.359375 C 20.914062 23.703125 20.640625 25.054688 20.640625 26.421875 C 20.640625 28.785156 21.320312 30.757812 22.6875 32.34375 C 24.0625 33.9375 25.914062 35.195312 28.25 36.125 C 30.582031 37.0625 33.285156 37.71875 36.359375 38.09375 C 39.441406 38.46875 42.695312 38.65625 46.125 38.65625 C 50.664062 38.65625 54.738281 38.265625 58.34375 37.484375 C 61.957031 36.710938 65.007812 35.65625 67.5 34.3125 C 69.988281 32.976562 71.882812 31.4375 73.1875 29.6875 C 74.5 27.945312 75.15625 26.082031 75.15625 24.09375 Z M 75.15625 24.09375 "/></g></g></g></g></g><g transform="matrix(1, 0, 0, 1, 970, 22)"><g clip-path="url(#f93b42eb5f)"><g fill="#004aad" fill-opacity="1"><g transform="translate(0.446603, 213.124386)"><g><path d="M 61.0625 -55.015625 C 61.0625 -56.785156 60.492188 -58.128906 59.359375 -59.046875 C 58.234375 -59.960938 56.785156 -60.421875 55.015625 -60.421875 C 52.535156 -60.421875 50.179688 -59.851562 47.953125 -58.71875 C 45.722656 -57.59375 43.753906 -55.929688 42.046875 -53.734375 C 40.347656 -51.546875 39.003906 -48.835938 38.015625 -45.609375 C 37.023438 -42.390625 36.53125 -38.65625 36.53125 -34.40625 C 36.53125 -30.300781 36.832031 -26.898438 37.4375 -24.203125 C 38.039062 -21.515625 38.851562 -19.375 39.875 -17.78125 C 40.90625 -16.195312 42.09375 -15.082031 43.4375 -14.4375 C 44.78125 -13.800781 46.195312 -13.484375 47.6875 -13.484375 C 49.53125 -13.484375 51.265625 -13.960938 52.890625 -14.921875 C 54.515625 -15.878906 55.925781 -17.097656 57.125 -18.578125 C 58.332031 -20.066406 59.289062 -21.734375 60 -23.578125 C 60.707031 -25.421875 61.0625 -27.257812 61.0625 -29.09375 Z M 44.1875 -101.53125 C 41.769531 -101.53125 39.535156 -101.242188 37.484375 -100.671875 C 35.429688 -100.109375 33.660156 -99.398438 32.171875 -98.546875 C 30.691406 -97.703125 29.523438 -96.765625 28.671875 -95.734375 C 27.828125 -94.710938 27.40625 -93.738281 27.40625 -92.8125 C 27.40625 -91.757812 27.953125 -91 29.046875 -90.53125 C 30.140625 -90.070312 31.359375 -89.539062 32.703125 -88.9375 C 34.054688 -88.34375 35.28125 -87.492188 36.375 -86.390625 C 37.46875 -85.296875 38.015625 -83.613281 38.015625 -81.34375 C 38.015625 -79.863281 37.710938 -78.503906 37.109375 -77.265625 C 36.515625 -76.023438 35.703125 -74.925781 34.671875 -73.96875 C 33.648438 -73.007812 32.445312 -72.265625 31.0625 -71.734375 C 29.6875 -71.203125 28.253906 -70.9375 26.765625 -70.9375 C 22.796875 -70.9375 19.585938 -72.28125 17.140625 -74.96875 C 14.703125 -77.664062 13.484375 -81.242188 13.484375 -85.703125 C 13.484375 -90.023438 14.613281 -93.722656 16.875 -96.796875 C 19.144531 -99.878906 22.101562 -102.410156 25.75 -104.390625 C 29.394531 -106.378906 33.519531 -107.847656 38.125 -108.796875 C 42.726562 -109.753906 47.332031 -110.234375 51.9375 -110.234375 C 57.457031 -110.234375 62.726562 -109.628906 67.75 -108.421875 C 72.78125 -107.222656 77.222656 -105.3125 81.078125 -102.6875 C 84.941406 -100.070312 88.023438 -96.742188 90.328125 -92.703125 C 92.628906 -88.671875 93.78125 -83.789062 93.78125 -78.0625 L 93.78125 -18.046875 C 93.78125 -17.410156 93.8125 -16.703125 93.875 -15.921875 C 93.945312 -15.148438 94.125 -14.441406 94.40625 -13.796875 C 94.695312 -13.160156 95.125 -12.628906 95.6875 -12.203125 C 96.25 -11.785156 97.0625 -11.578125 98.125 -11.578125 C 99.40625 -11.578125 100.59375 -12.050781 101.6875 -13 C 102.78125 -13.957031 103.753906 -14.9375 104.609375 -15.9375 L 107.265625 -13.703125 C 106.203125 -12.210938 104.925781 -10.582031 103.4375 -8.8125 C 101.945312 -7.039062 100.140625 -5.375 98.015625 -3.8125 C 95.898438 -2.257812 93.425781 -0.953125 90.59375 0.109375 C 87.757812 1.171875 84.535156 1.703125 80.921875 1.703125 C 76.460938 1.703125 72.5 0.375 69.03125 -2.28125 C 65.5625 -4.9375 63.296875 -9.023438 62.234375 -14.546875 C 59.960938 -11.503906 57.601562 -8.957031 55.15625 -6.90625 C 52.71875 -4.851562 50.222656 -3.1875 47.671875 -1.90625 C 45.128906 -0.632812 42.566406 0.28125 39.984375 0.84375 C 37.398438 1.414062 34.796875 1.703125 32.171875 1.703125 C 28.773438 1.703125 25.484375 1.171875 22.296875 0.109375 C 19.109375 -0.953125 16.257812 -2.632812 13.75 -4.9375 C 11.238281 -7.238281 9.222656 -10.226562 7.703125 -13.90625 C 6.179688 -17.59375 5.421875 -22.09375 5.421875 -27.40625 C 5.421875 -33.84375 6.691406 -39.113281 9.234375 -43.21875 C 11.785156 -47.332031 15.128906 -50.785156 19.265625 -53.578125 C 23.410156 -56.378906 28.117188 -58.769531 33.390625 -60.75 C 38.671875 -62.726562 44.070312 -64.816406 49.59375 -67.015625 C 53.695312 -68.640625 56.6875 -71.0625 58.5625 -74.28125 C 60.445312 -77.507812 61.390625 -80.820312 61.390625 -84.21875 C 61.390625 -89.457031 59.847656 -93.648438 56.765625 -96.796875 C 53.679688 -99.953125 49.488281 -101.53125 44.1875 -101.53125 Z M 44.1875 -101.53125 "/></g></g></g></g></g><g transform="matrix(1, 0, 0, 1, 709, 7)"><g clip-path="url(#b16e7b66ab)"><g fill="#004aad" fill-opacity="1"><g transform="translate(9.451366, 250.83927)"><g><path d="M 129.140625 -44.890625 L 84 -134.78125 L 82.375 -104.5625 C 81.875 -95.789062 81.4375 -87.078125 81.0625 -78.421875 C 80.6875 -69.773438 79.992188 -61.539062 78.984375 -53.71875 C 77.984375 -45.90625 76.414062 -38.65625 74.28125 -31.96875 C 72.15625 -25.28125 69.0625 -19.488281 65 -14.59375 C 60.945312 -9.707031 55.679688 -5.882812 49.203125 -3.125 C 42.734375 -0.375 34.648438 1 24.953125 1 C 20.691406 1 16.59375 0.644531 12.65625 -0.0625 C 8.726562 -0.769531 5.257812 -1.75 2.25 -3 C -0.75 -4.257812 -3.144531 -5.742188 -4.9375 -7.453125 C -6.738281 -9.171875 -7.640625 -11.035156 -7.640625 -13.046875 C -7.640625 -14.546875 -7.429688 -16.066406 -7.015625 -17.609375 C -6.597656 -19.160156 -5.972656 -20.582031 -5.140625 -21.875 C -4.304688 -23.175781 -3.28125 -24.222656 -2.0625 -25.015625 C -0.851562 -25.804688 0.5 -26.203125 2 -26.203125 C 2.925781 -26.203125 3.742188 -25.742188 4.453125 -24.828125 C 5.160156 -23.910156 5.890625 -22.757812 6.640625 -21.375 C 7.398438 -20 8.257812 -18.515625 9.21875 -16.921875 C 10.175781 -15.335938 11.425781 -13.851562 12.96875 -12.46875 C 14.519531 -11.09375 16.378906 -9.941406 18.546875 -9.015625 C 20.722656 -8.097656 23.441406 -7.640625 26.703125 -7.640625 C 33.140625 -7.640625 38.550781 -8.75 42.9375 -10.96875 C 47.332031 -13.1875 50.945312 -16.382812 53.78125 -20.5625 C 56.625 -24.738281 58.796875 -29.796875 60.296875 -35.734375 C 61.804688 -41.671875 62.9375 -48.398438 63.6875 -55.921875 C 64.03125 -60.097656 64.367188 -64.128906 64.703125 -68.015625 C 65.035156 -71.898438 65.367188 -75.765625 65.703125 -79.609375 C 66.035156 -83.460938 66.347656 -87.375 66.640625 -91.34375 C 66.929688 -95.3125 67.242188 -99.507812 67.578125 -103.9375 C 67.992188 -110.375 68.367188 -116.5 68.703125 -122.3125 C 69.035156 -128.125 69.304688 -133.535156 69.515625 -138.546875 C 69.734375 -143.554688 69.90625 -148.066406 70.03125 -152.078125 C 70.15625 -156.097656 70.257812 -159.570312 70.34375 -162.5 C 68.914062 -165.414062 67.660156 -167.773438 66.578125 -169.578125 C 65.492188 -171.378906 64.363281 -172.757812 63.1875 -173.71875 C 62.019531 -174.675781 60.722656 -175.320312 59.296875 -175.65625 C 57.878906 -175.988281 56.171875 -176.15625 54.171875 -176.15625 C 52.492188 -176.15625 50.421875 -175.84375 47.953125 -175.21875 C 45.492188 -174.59375 42.945312 -173.691406 40.3125 -172.515625 C 37.675781 -171.347656 35.039062 -169.90625 32.40625 -168.1875 C 29.78125 -166.476562 27.441406 -164.515625 25.390625 -162.296875 C 23.335938 -160.085938 21.664062 -157.644531 20.375 -154.96875 C 19.082031 -152.289062 18.4375 -149.40625 18.4375 -146.3125 C 18.4375 -143.644531 18.789062 -141.515625 19.5 -139.921875 C 20.207031 -138.335938 21.039062 -137.144531 22 -136.34375 C 22.96875 -135.550781 23.929688 -135.050781 24.890625 -134.84375 C 25.847656 -134.632812 26.535156 -134.53125 26.953125 -134.53125 C 29.046875 -134.53125 30.757812 -134.882812 32.09375 -135.59375 C 33.4375 -136.3125 34.648438 -137.066406 35.734375 -137.859375 C 36.816406 -138.648438 37.835938 -139.398438 38.796875 -140.109375 C 39.765625 -140.816406 40.875 -141.171875 42.125 -141.171875 C 43.125 -141.171875 44.1875 -140.941406 45.3125 -140.484375 C 46.445312 -140.023438 47.492188 -139.296875 48.453125 -138.296875 C 49.421875 -137.296875 50.238281 -135.976562 50.90625 -134.34375 C 51.570312 -132.71875 51.90625 -130.734375 51.90625 -128.390625 C 51.90625 -125.046875 51.253906 -122.160156 49.953125 -119.734375 C 48.660156 -117.316406 46.988281 -115.289062 44.9375 -113.65625 C 42.894531 -112.03125 40.554688 -110.816406 37.921875 -110.015625 C 35.296875 -109.222656 32.6875 -108.828125 30.09375 -108.828125 C 26.082031 -108.828125 22.46875 -109.515625 19.25 -110.890625 C 16.03125 -112.273438 13.289062 -114.175781 11.03125 -116.59375 C 8.769531 -119.019531 7.054688 -121.863281 5.890625 -125.125 C 4.722656 -128.382812 4.140625 -131.851562 4.140625 -135.53125 C 4.140625 -144.226562 6.144531 -151.816406 10.15625 -158.296875 C 14.164062 -164.773438 19.429688 -170.1875 25.953125 -174.53125 C 32.472656 -178.875 39.847656 -182.109375 48.078125 -184.234375 C 56.316406 -186.367188 64.695312 -187.4375 73.21875 -187.4375 C 80.070312 -187.4375 85.796875 -186.75 90.390625 -185.375 C 94.992188 -184 98.84375 -182.160156 101.9375 -179.859375 C 105.03125 -177.554688 107.578125 -174.859375 109.578125 -171.765625 C 111.585938 -168.679688 113.425781 -165.425781 115.09375 -162 L 148.203125 -94.78125 C 156.804688 -111.75 164.640625 -126.941406 171.703125 -140.359375 C 178.765625 -153.773438 185.304688 -165.582031 191.328125 -175.78125 C 197.347656 -185.976562 202.96875 -194.671875 208.1875 -201.859375 C 213.414062 -209.046875 218.472656 -214.914062 223.359375 -219.46875 C 228.253906 -224.03125 233.101562 -227.351562 237.90625 -229.4375 C 242.71875 -231.53125 247.710938 -232.578125 252.890625 -232.578125 C 257.328125 -232.578125 260.921875 -231.632812 263.671875 -229.75 C 266.429688 -227.875 267.8125 -225.054688 267.8125 -221.296875 C 267.8125 -217.953125 267.269531 -215.191406 266.1875 -213.015625 C 265.101562 -210.847656 263.597656 -209.765625 261.671875 -209.765625 C 260.078125 -209.765625 258.863281 -210.367188 258.03125 -211.578125 C 257.195312 -212.796875 256.382812 -214.113281 255.59375 -215.53125 C 254.800781 -216.945312 253.816406 -218.257812 252.640625 -219.46875 C 251.472656 -220.6875 249.757812 -221.296875 247.5 -221.296875 C 246.164062 -221.296875 244.535156 -220.921875 242.609375 -220.171875 C 240.691406 -219.421875 238.707031 -218.289062 236.65625 -216.78125 C 234.601562 -215.28125 232.570312 -213.398438 230.5625 -211.140625 C 228.5625 -208.878906 226.804688 -206.242188 225.296875 -203.234375 C 223.796875 -200.234375 222.628906 -196.804688 221.796875 -192.953125 C 220.960938 -189.109375 220.710938 -184.890625 221.046875 -180.296875 C 221.378906 -175.035156 221.835938 -168.867188 222.421875 -161.796875 C 223.003906 -154.734375 223.648438 -147.171875 224.359375 -139.109375 C 225.078125 -131.046875 225.832031 -122.707031 226.625 -114.09375 C 227.414062 -105.488281 228.226562 -97.003906 229.0625 -88.640625 C 229.90625 -80.285156 230.722656 -72.257812 231.515625 -64.5625 C 232.304688 -56.875 233.035156 -49.914062 233.703125 -43.6875 C 234.378906 -37.46875 235.007812 -32.203125 235.59375 -27.890625 C 236.175781 -23.585938 236.632812 -20.644531 236.96875 -19.0625 C 237.46875 -16.632812 238.132812 -14.6875 238.96875 -13.21875 C 239.8125 -11.757812 241.316406 -11.03125 243.484375 -11.03125 C 245.742188 -11.03125 247.875 -11.425781 249.875 -12.21875 C 251.882812 -13.019531 253.6875 -13.835938 255.28125 -14.671875 L 257.28125 -10.03125 C 255.78125 -8.945312 253.878906 -7.710938 251.578125 -6.328125 C 249.273438 -4.953125 246.640625 -3.632812 243.671875 -2.375 C 240.710938 -1.125 237.457031 -0.0820312 233.90625 0.75 C 230.351562 1.582031 226.523438 2 222.421875 2 C 216.660156 2 212.109375 1.269531 208.765625 -0.1875 C 205.421875 -1.644531 202.847656 -3.441406 201.046875 -5.578125 C 199.253906 -7.710938 198.039062 -9.96875 197.40625 -12.34375 C 196.78125 -14.726562 196.300781 -16.882812 195.96875 -18.8125 C 195.21875 -23.070312 194.421875 -28.207031 193.578125 -34.21875 C 192.742188 -40.238281 191.929688 -46.695312 191.140625 -53.59375 C 190.347656 -60.488281 189.578125 -67.59375 188.828125 -74.90625 C 188.078125 -82.226562 187.382812 -89.378906 186.75 -96.359375 C 186.125 -103.335938 185.5625 -109.914062 185.0625 -116.09375 C 184.5625 -122.28125 184.144531 -127.675781 183.8125 -132.28125 C 181.300781 -128.1875 178.976562 -124.234375 176.84375 -120.421875 C 174.71875 -116.617188 172.648438 -112.734375 170.640625 -108.765625 C 168.640625 -104.796875 166.59375 -100.632812 164.5 -96.28125 C 162.40625 -91.9375 160.207031 -87.21875 157.90625 -82.125 C 155.613281 -77.03125 153.109375 -71.429688 150.390625 -65.328125 C 147.671875 -59.222656 144.6875 -52.410156 141.4375 -44.890625 Z M 129.140625 -44.890625 "/></g></g></g></g></g><g fill="#0cc0df" fill-opacity="1"><g transform="translate(0.844779, 235.092372)"><g><path d="M 29.921875 1.5 L 0.59375 -71.5625 L 16.71875 -71.5625 L 31.125 -35.03125 L 45.140625 -70.859375 L 45.84375 -70.859375 L 59.859375 -35.03125 L 74.265625 -71.5625 L 90.390625 -71.5625 L 61.15625 1.203125 L 58.5625 1.203125 L 45.4375 -30.53125 L 32.4375 1.5 Z M 29.921875 1.5 "/></g></g></g><g fill="#0cc0df" fill-opacity="1"><g transform="translate(91.916801, 235.092372)"><g><path d="M 58.046875 0 L 43.734375 0 L 43.734375 -28.625 L 22.328125 -28.625 L 22.328125 0 L 8 0 L 8 -71.5625 L 22.328125 -71.5625 L 22.328125 -42.9375 L 43.734375 -42.9375 L 43.734375 -71.5625 L 58.046875 -71.5625 Z M 58.046875 0 "/></g></g></g><g fill="#0cc0df" fill-opacity="1"><g transform="translate(158.069111, 235.092372)"><g><path d="M 1.59375 0 L 31.734375 -74.171875 L 33.234375 -74.171875 L 63.359375 0 L 47.25 0 L 44.34375 -7.703125 L 20.625 -7.703125 L 17.8125 0 Z M 25.828125 -21.125 L 39.03125 -21.125 L 32.53125 -39.734375 Z M 25.828125 -21.125 "/></g></g></g><g fill="#0cc0df" fill-opacity="1"><g transform="translate(218.716661, 235.092372)"><g><path d="M 34.125 0 L 19.8125 0 L 19.8125 -57.25 L 2 -57.25 L 2 -71.46875 L 51.953125 -71.46875 L 51.953125 -57.25 L 34.125 -57.25 Z M 34.125 0 "/></g></g></g><g fill="#0cc0df" fill-opacity="1"><g transform="translate(273.459924, 235.092372)"><g/></g></g><g fill="#0cc0df" fill-opacity="1"><g transform="translate(301.882426, 235.092372)"><g><path d="M 29.921875 1.5 L 0.59375 -71.5625 L 16.71875 -71.5625 L 31.125 -35.03125 L 45.140625 -70.859375 L 45.84375 -70.859375 L 59.859375 -35.03125 L 74.265625 -71.5625 L 90.390625 -71.5625 L 61.15625 1.203125 L 58.5625 1.203125 L 45.4375 -30.53125 L 32.4375 1.5 Z M 29.921875 1.5 "/></g></g></g><g fill="#0cc0df" fill-opacity="1"><g transform="translate(392.954436, 235.092372)"><g><path d="M 45.046875 0 L 8 0 L 8 -71.5625 L 43.84375 -71.5625 L 43.84375 -57.25 L 22.328125 -57.25 L 22.328125 -42.9375 L 41.140625 -42.9375 L 41.140625 -28.625 L 22.328125 -28.625 L 22.328125 -14.3125 L 45.046875 -14.3125 Z M 45.046875 0 "/></g></g></g><g fill="#0cc0df" fill-opacity="1"><g transform="translate(443.394315, 235.092372)"><g/></g></g><g fill="#0cc0df" fill-opacity="1"><g transform="translate(471.816817, 235.092372)"><g><path d="M 53.546875 -54.953125 C 52.210938 -55.679688 50.59375 -56.378906 48.6875 -57.046875 C 46.789062 -57.710938 44.273438 -58.046875 41.140625 -58.046875 C 37.066406 -58.046875 33.59375 -57.257812 30.71875 -55.6875 C 27.851562 -54.125 25.550781 -52.039062 23.8125 -49.4375 C 22.082031 -46.84375 20.914062 -43.992188 20.3125 -40.890625 C 19.71875 -37.785156 19.71875 -34.679688 20.3125 -31.578125 C 20.914062 -28.472656 22.082031 -25.617188 23.8125 -23.015625 C 25.550781 -20.421875 27.851562 -18.335938 30.71875 -16.765625 C 33.59375 -15.191406 37.066406 -14.40625 41.140625 -14.40625 C 44.273438 -14.40625 47.023438 -14.769531 49.390625 -15.5 C 51.765625 -16.238281 53.617188 -16.941406 54.953125 -17.609375 L 56.859375 -2.796875 C 54.648438 -1.929688 52.109375 -1.210938 49.234375 -0.640625 C 46.367188 -0.078125 43.671875 0.203125 41.140625 0.203125 C 35.066406 0.203125 29.757812 -0.8125 25.21875 -2.84375 C 20.6875 -4.882812 16.898438 -7.640625 13.859375 -11.109375 C 10.828125 -14.578125 8.554688 -18.460938 7.046875 -22.765625 C 5.546875 -27.078125 4.796875 -31.535156 4.796875 -36.140625 C 4.796875 -40.742188 5.546875 -45.195312 7.046875 -49.5 C 8.554688 -53.800781 10.828125 -57.6875 13.859375 -61.15625 C 16.898438 -64.625 20.6875 -67.375 25.21875 -69.40625 C 29.757812 -71.445312 35.066406 -72.46875 41.140625 -72.46875 C 46.347656 -72.46875 51.050781 -71.535156 55.25 -69.671875 Z M 53.546875 -54.953125 "/></g></g></g><g fill="#0cc0df" fill-opacity="1"><g transform="translate(532.064442, 235.092372)"><g><path d="M 1.59375 0 L 31.734375 -74.171875 L 33.234375 -74.171875 L 63.359375 0 L 47.25 0 L 44.34375 -7.703125 L 20.625 -7.703125 L 17.8125 0 Z M 25.828125 -21.125 L 39.03125 -21.125 L 32.53125 -39.734375 Z M 25.828125 -21.125 "/></g></g></g><g fill="#0cc0df" fill-opacity="1"><g transform="translate(597.416144, 235.092372)"><g><path d="M 8 -71.5625 L 22.328125 -71.5625 L 22.328125 -14.3125 L 45.046875 -14.3125 L 45.046875 0 L 8 0 Z M 8 -71.5625 "/></g></g></g><g fill="#0cc0df" fill-opacity="1"><g transform="translate(646.755165, 235.092372)"><g><path d="M 8 -71.5625 L 22.328125 -71.5625 L 22.328125 -14.3125 L 45.046875 -14.3125 L 45.046875 0 L 8 0 Z M 8 -71.5625 "/></g></g></g><g clip-path="url(#9986765c70)"><g clip-path="url(#0680cf7b75)"><g transform="matrix(1, 0, 0, 1, 5, 101)"><g clip-path="url(#ebd0ef351d)"><g clip-path="url(#ba1897f292)"><g clip-path="url(#8fea3ff122)"><path fill="#0cc0df" d="M 0.199219 0.289062 L 49.238281 0.289062 L 49.238281 49.328125 L 0.199219 49.328125 Z M 0.199219 0.289062 " fill-opacity="1" fill-rule="nonzero"/></g></g></g></g></g></g><g clip-path="url(#6649d0babe)"><g clip-path="url(#0c4ca43a71)"><g transform="matrix(1, 0, 0, 1, 24, 40)"><g clip-path="url(#085b507ea5)"><g clip-path="url(#223d12b378)"><g clip-path="url(#c6728abd9e)"><path fill="#0cc0df" d="M 0.00390625 0.820312 L 60.472656 0.820312 L 60.472656 61.289062 L 0.00390625 61.289062 Z M 0.00390625 0.820312 " fill-opacity="1" fill-rule="nonzero"/></g></g></g></g></g></g></g></g></svg>